{
  "source": "C:\\Users\\Peter\\Desktop\\stuff\\MIUN\\quantitative_research\\video_compression\\videos\\BVI-HD\\BVI-HD_CDVL_videos\\ORIG\\CarpetCircleFast_1920x1080_60fps.mp4",
  "output": "C:\\Users\\Peter\\Desktop\\stuff\\MIUN\\quantitative_research\\video_compression\\compressed_videos\\BVI-HD\\h264\\8\\CarpetCircleFast_1920x1080_60fps_h264.mp4",
  "codec": "h264",
  "ok": "Input #0, mov,mp4,m4a,3gp,3g2,mj2, from 'C:\\Users\\Peter\\Desktop\\stuff\\MIUN\\quantitative_research\\video_compression\\videos\\BVI-HD\\BVI-HD_CDVL_videos\\ORIG\\CarpetCircleFast_1920x1080_60fps.mp4':\n  Metadata:\n    major_brand     : isom\n    minor_version   : 512\n    compatible_brands: isomiso2avc1mp41\n    encoder         : Lavf54.28.101\n  Duration: 00:00:05.00, start: 0.000000, bitrate: 324759 kb/s\n  Stream #0:0[0x1](und): Video: h264 (High 4:4:4 Predictive) (avc1 / 0x31637661), yuv420p(progressive), 1920x1080, 324754 kb/s, 60 fps, 60 tbr, 60 tbn (default)\n    Metadata:\n      handler_name    : VideoHandler\n      vendor_id       : [0][0][0][0]\n[out#0/mp4 @ 00000193ff1e9b40] Codec AVOption b:a (set bitrate (in bits/s)) has not been used for any stream. The most likely reason is either wrong type (e.g. a video option with no video streams) or that it is a private option of some decoder which was not actually used for any stream.\nStream mapping:\n  Stream #0:0 -> #0:0 (h264 (native) -> h264 (libx264))\nPress [q] to stop, [?] for help\n[libx264 @ 00000193ffbad300] using cpu capabilities: MMX2 SSE2Fast SSSE3 SSE4.2 AVX FMA3 BMI2 AVX2\n[libx264 @ 00000193ffbad300] profile High, level 5.0, 4:2:0, 8-bit\n[libx264 @ 00000193ffbad300] 264 - core 165 r3222 b35605a - H.264/MPEG-4 AVC codec - Copyleft 2003-2025 - http://www.videolan.org/x264.html - options: cabac=1 ref=5 deblock=1:0:0 analyse=0x3:0x113 me=hex subme=8 psy=1 psy_rd=1.00:0.00 mixed_ref=1 me_range=16 chroma_me=1 trellis=2 8x8dct=1 cqm=0 deadzone=21,11 fast_pskip=1 chroma_qp_offset=-2 threads=18 lookahead_threads=3 sliced_threads=0 nr=0 decimate=1 interlaced=0 bluray_compat=0 constrained_intra=0 bframes=3 b_pyramid=2 b_adapt=1 b_bias=0 direct=3 weightb=1 open_gop=0 weightp=2 keyint=250 keyint_min=25 scenecut=40 intra_refresh=0 rc_lookahead=50 rc=cbr mbtree=1 bitrate=8000 ratetol=1.0 qcomp=0.60 qpmin=0 qpmax=69 qpstep=4 vbv_maxrate=8000 vbv_bufsize=8000 nal_hrd=none filler=0 ip_ratio=1.40 aq=1:1.00\nOutput #0, mp4, to 'C:\\Users\\Peter\\Desktop\\stuff\\MIUN\\quantitative_research\\video_compression\\compressed_videos\\BVI-HD\\h264\\8\\CarpetCircleFast_1920x1080_60fps_h264.mp4':\n  Metadata:\n    major_brand     : isom\n    minor_version   : 512\n    compatible_brands: isomiso2avc1mp41\n    encoder         : Lavf62.3.100\n  Stream #0:0(und): Video: h264 (avc1 / 0x31637661), yuv420p(tv, progressive), 1920x1080, q=2-31, 8000 kb/s, 60 fps, 15360 tbn (default)\n    Metadata:\n      encoder         : Lavc62.11.100 libx264\n      handler_name    : VideoHandler\n      vendor_id       : [0][0][0][0]\n    Side data:\n      cpb: bitrate max/min/avg: 8000000/0/8000000 buffer size: 8000000 vbv_delay: N/A\nframe=    0 fps=0.0 q=0.0 size=       0KiB time=N/A bitrate=N/A speed=N/A elapsed=0:00:00.51    \nframe=    0 fps=0.0 q=0.0 size=       0KiB time=N/A bitrate=N/A speed=N/A elapsed=0:00:01.08    \nframe=   22 fps= 13 q=30.0 size=       0KiB time=00:00:00.33 bitrate=   1.2kbits/s speed=0.202x elapsed=0:00:01.65    \nframe=   47 fps= 21 q=28.0 size=     256KiB time=00:00:00.75 bitrate=2796.7kbits/s speed=0.342x elapsed=0:00:02.19    \nframe=   62 fps= 23 q=31.0 size=     512KiB time=00:00:01.00 bitrate=4194.7kbits/s speed=0.366x elapsed=0:00:02.72    \nframe=   80 fps= 25 q=33.0 size=    1024KiB time=00:00:01.30 bitrate=6453.1kbits/s speed=0.399x elapsed=0:00:03.25    \nframe=   94 fps= 25 q=32.0 size=    1280KiB time=00:00:01.51 bitrate=6913.9kbits/s speed= 0.4x elapsed=0:00:03.78    \nframe=  111 fps= 26 q=31.0 size=    1536KiB time=00:00:01.81 bitrate=6926.6kbits/s speed=0.42x elapsed=0:00:04.32    \nframe=  131 fps= 27 q=29.0 size=    1536KiB time=00:00:02.15 bitrate=5852.7kbits/s speed=0.44x elapsed=0:00:04.88    \nframe=  156 fps= 29 q=29.0 size=    1792KiB time=00:00:02.48 bitrate=5911.6kbits/s speed=0.458x elapsed=0:00:05.42    \nframe=  177 fps= 30 q=29.0 size=    2048KiB time=00:00:02.91 bitrate=5752.3kbits/s speed=0.486x elapsed=0:00:05.99    \nframe=  193 fps= 29 q=29.0 size=    2304KiB time=00:00:03.15 bitrate=5992.0kbits/s speed=0.48x elapsed=0:00:06.56    \nframe=  209 fps= 29 q=31.0 size=    2560KiB time=00:00:03.45 bitrate=6078.8kbits/s speed=0.486x elapsed=0:00:07.10    \nframe=  226 fps= 30 q=31.0 size=    2816KiB time=00:00:03.73 bitrate=6179.2kbits/s speed=0.49x elapsed=0:00:07.62    \nframe=  257 fps= 32 q=28.0 size=    3328KiB time=00:00:04.25 bitrate=6414.9kbits/s speed=0.522x elapsed=0:00:08.14    \nframe=  292 fps= 34 q=-1.0 size=    3584KiB time=00:00:04.83 bitrate=6074.6kbits/s speed=0.558x elapsed=0:00:08.66    \n[mp4 @ 00000193ff7c00c0] Starting second pass: moving the moov atom to the beginning of the file\n[out#0/mp4 @ 00000193ff1e9b40] video:3838KiB audio:0KiB subtitle:0KiB other streams:0KiB global headers:0KiB muxing overhead: 0.109279%\nframe=  300 fps= 34 q=-1.0 Lsize=    3842KiB time=00:00:04.96 bitrate=6337.6kbits/s speed=0.565x elapsed=0:00:08.78    \n[libx264 @ 00000193ffbad300] frame I:2     Avg QP:25.33  size: 50978\n[libx264 @ 00000193ffbad300] frame P:91    Avg QP:26.72  size: 32497\n[libx264 @ 00000193ffbad300] frame B:207   Avg QP:28.32  size:  4204\n[libx264 @ 00000193ffbad300] consecutive B-frames:  5.0%  4.0% 15.0% 76.0%\n[libx264 @ 00000193ffbad300] mb I  I16..4: 18.1% 79.8%  2.1%\n[libx264 @ 00000193ffbad300] mb P  I16..4:  2.4% 22.5%  0.7%  P16..4: 45.3%  4.4%  4.0%  0.0%  0.0%    skip:20.6%\n[libx264 @ 00000193ffbad300] mb B  I16..4:  0.1%  0.3%  0.0%  B16..8: 27.1%  0.8%  0.1%  direct: 0.9%  skip:70.8%  L0:44.4% L1:54.7% BI: 0.9%\n[libx264 @ 00000193ffbad300] 8x8 transform intra:87.2% inter:96.2%\n[libx264 @ 00000193ffbad300] direct mvs  spatial:95.2% temporal:4.8%\n[libx264 @ 00000193ffbad300] coded y,uvDC,uvAC intra: 72.5% 61.7% 4.6% inter: 10.7% 14.7% 0.0%\n[libx264 @ 00000193ffbad300] i16 v,h,dc,p: 11% 44%  5% 40%\n[libx264 @ 00000193ffbad300] i8 v,h,dc,ddl,ddr,vr,hd,vl,hu: 10% 12%  8%  9% 10% 11% 16% 10% 14%\n[libx264 @ 00000193ffbad300] i4 v,h,dc,ddl,ddr,vr,hd,vl,hu: 11%  8%  1%  8% 20% 15% 20%  7% 10%\n[libx264 @ 00000193ffbad300] i8c dc,h,v,p: 43% 14% 30% 12%\n[libx264 @ 00000193ffbad300] Weighted P-Frames: Y:4.4% UV:4.4%\n[libx264 @ 00000193ffbad300] ref P L0: 66.2% 20.7%  8.2%  2.8%  2.1%  0.1%\n[libx264 @ 00000193ffbad300] ref B L0: 97.4%  1.7%  0.6%  0.3%\n[libx264 @ 00000193ffbad300] ref B L1: 99.9%  0.1%\n[libx264 @ 00000193ffbad300] kb/s:6287.27\n",
  "seconds": 8.982743740081787,
  "probe_out": {}
}